<svg fill="none" height="34" viewBox="0 0 34 34" width="34" xmlns="http://www.w3.org/2000/svg"><g fill="colorCurrent"><path d="m15.109 16.3611c.5485-.2759.9632-.5832 1.2473-.9152.5055-.598.755-1.391.755-2.3739 0-.9566-.2495-1.7743-.7484-2.4599-.8326-1.11673-2.2418-1.68832-4.2341-1.71806h-7.89333v16.11196h7.35973c.8293 0 1.5975-.071 2.3079-.2164.7103-.147 1.3249-.4163 1.8453-.8095.4625-.342.8491-.7665 1.1564-1.2671.4857-.7566.7285-1.614.7285-2.5688 0-.9252-.2131-1.7132-.636-2.3607-.4279-.6476-1.0556-1.1218-1.8883-1.4224zm-7.6174-4.6686h3.5551c.7814 0 1.4257.0843 1.9312.2511.5849.2429.8773.7368.8773 1.4901 0 .6757-.2231 1.1482-.6642 1.4142-.4443.2659-1.0209.3997-1.728.3997h-3.9714zm5.6218 10.2342c-.3932.19-.9466.2841-1.6553.2841h-3.9665v-4.2968h4.021c.7005.0049 1.2456.0974 1.6355.2709.6938.3139 1.0391.8888 1.0391 1.7296 0 .9912-.3568 1.6586-1.0738 2.0122z"/><path d="m28.1251 9.64746h-6.9996v2.00554h6.9996z"/><path d="m30.0869 17.4927c-.1454-.9334-.4659-1.7544-.9648-2.4631-.5468-.8029-1.2407-1.391-2.0848-1.7627-.8409-.3734-1.7875-.56-2.8415-.5584-1.7693 0-3.2066.5534-4.3184 1.652-1.1085 1.1019-1.6635 2.6862-1.6635 4.7512 0 2.2021.6129 3.7929 1.8453 4.7693 1.2274.978 2.6448 1.4653 4.2539 1.4653 1.9477 0 3.4626-.5799 4.5447-1.7363.6922-.7301 1.0837-1.4488 1.1696-2.1542h-3.2247c-.1867.3486-.4031.6212-.6509.8194-.4494.3635-1.0342.5452-1.7511.5452-.6823 0-1.2605-.1503-1.7429-.4494-.7963-.479-1.2126-1.3183-1.2655-2.5126h8.8003c.0132-1.0292-.0198-1.8205-.1057-2.3657zm-8.6153.3089c.1157-.7748.3965-1.3893.8426-1.8436.446-.4527 1.0771-.6806 1.8849-.6823.7451 0 1.3679.2131 1.875.641.5006.4312.7831 1.0573.8409 1.8849z"/></g></svg>