<svg fill="none" height="34" viewBox="0 0 34 34" width="34" xmlns="http://www.w3.org/2000/svg" xmlns:xlink="http://www.w3.org/1999/xlink"><clipPath id="a"><path d="m6.35419 6.35449h20.3325v20.3323h-20.3325z"/></clipPath><g clip-path="url(#a)" fill="colorCurrent"><path d="m19.5792 17.4394c.9972 2.5228 1.7376 5.12 2.2188 7.7734.6864-.4185 1.328-.9214 1.9111-1.5044 1.5146-1.5148 2.4921-3.4234 2.8374-5.4949-1.488-.6155-3.1176-.9562-4.8253-.9562-.73 0-1.4455.063-2.142.1821z"/><path d="m23.7175 9.34077c-.0029-.00279-.0057-.0059-.0085-.00869-1.9203-1.92011-4.4732-2.97759-7.1886-2.97759-1.0619 0-2.0989.16242-3.0828.47421 1.5771 1.97596 2.9645 4.0847 4.1536 6.3134 2.24-.9511 4.3033-2.2397 6.1263-3.80133z"/><path d="m24.5164 10.2402c-1.9124 1.6426-4.0494 2.9737-6.3749 3.9685.3429.6902.6666 1.3913.9722 2.1029.8533-.1624 1.7241-.2453 2.6075-.2453 1.7112 0 3.3755.3078 4.9548.9136.0069-.1527.0107-.3058.0107-.4595 0-2.307-.7635-4.4962-2.1703-6.2802z"/><path d="m10.2631 24.5341c1.7797 1.3955 3.9604 2.1524 6.2575 2.1524 1.4601 0 2.8729-.3062 4.1659-.8873-.4846-2.8081-1.2605-5.5175-2.2958-8.0961-3.5978.982-6.562 3.5139-8.1276 6.831z"/><path d="m16.3283 17.1557c.5229-.2212 1.0559-.4086 1.5973-.5628-.2857-.6543-.5888-1.2993-.9078-1.9352-2.7465 1.0198-5.6344 1.5365-8.60102 1.5365-.68921 0-1.37393-.0284-2.05369-.0839-.00543.1363-.00884.2732-.00884.4104 0 2.7155 1.05748 5.2683 2.97761 7.1884.00062.0007.0014.0013.00202.0019.66409-1.3244 1.53262-2.5282 2.59092-3.5866 1.2721-1.272 2.7536-2.2708 4.4035-2.9687z"/><path d="m16.4606 13.5875c-1.2064-2.2342-2.6179-4.3422-4.2087-6.29893-1.0721.49655-2.0597 1.18297-2.92006 2.04329-1.53822 1.53824-2.52217 3.48264-2.8529 5.59144.63912.0522 1.28537.0794 1.93782.0794 2.82354 0 5.53284-.4998 8.04384-1.4152z"/></g></svg>