<svg fill="none" height="25" viewBox="0 0 22 25" width="22" xmlns="http://www.w3.org/2000/svg"><path d="m16.7548 17.1795c-1.2248 1.101-2.8419 1.7113-4.6165 1.7113-3.91205 0-6.78492-2.8728-6.78492-6.8172 0-3.94438 2.78147-6.69631 6.78492-6.69631 1.7437 0 3.3917.58076 4.6475 1.68181l.8535.73404 3.7925-3.79111-.9492-.85637c-2.2316-2.01508-5.1944-3.14566-8.3457-3.14566-7.031 0-12.1369 5.07355-12.1369 12.0441 0 6.9409 5.22824 12.1959 12.1369 12.1959 3.2103 0 6.2041-1.1306 8.4076-3.178l.9169-.8564-3.8516-3.7883z" fill="#212121"/><path d="m11.9525 8.06799c1.0785 0 2.1129.42846 2.8756 1.19112.7626.76269 1.1911 1.79709 1.1911 2.87559 0 1.0786-.4285 2.113-1.1911 2.8756-.7627.7627-1.7971 1.1911-2.8756 1.1911-1.0786 0-2.11299-.4284-2.87565-1.1911-.76265-.7626-1.19111-1.797-1.19111-2.8756 0-1.0785.42846-2.1129 1.19111-2.87559.76266-.76266 1.79705-1.19112 2.87565-1.19112z" fill="#ff3d2e"/></svg>