<svg fill="none" height="61" viewBox="0 0 61 61" width="61" xmlns="http://www.w3.org/2000/svg"><path d="m1.5 1.5h59v58.6392h-59z" fill="#d8d8d8" opacity=".01" stroke="#979797"/><g stroke="#141515"><path d="m32 12.6098v-3.65791c0-1.84535-.7375-3.61512-2.0503-4.91998-1.3127-1.30486-3.0932-2.03792-4.9497-2.03792h-16c-3.86599 0-7 3.11516-7 6.9579v29.81961c0 3.8427 3.13401 6.9579 7 6.9579h11.3" stroke-width="3"/><path clip-rule="evenodd" d="m43.58 12.0332h-16c-3.866 0-7 3.1152-7 6.9579v29.8196c0 3.8428 3.134 6.9579 7 6.9579h16c3.866 0 7-3.1151 7-6.9579v-29.8196c0-3.8427-3.134-6.9579-7-6.9579z" fill-rule="evenodd" stroke-width="3"/><path d="m28.58 25.9491c1.1046 0 2-.8901 2-1.988s-.8954-1.988-2-1.988-2 .8901-2 1.988.8954 1.988 2 1.988z" fill="#141515"/><path d="m28.58 35.8889c1.1046 0 2-.89 2-1.988 0-1.0979-.8954-1.9879-2-1.9879s-2 .89-2 1.9879c0 1.098.8954 1.988 2 1.988z" fill="#141515" stroke-width=".5"/><path d="m28.58 45.8288c1.1046 0 2-.8901 2-1.988s-.8954-1.988-2-1.988-2 .8901-2 1.988.8954 1.988 2 1.988z" fill="#141515"/></g></svg>