<svg fill="none" height="60" viewBox="0 0 65 60" width="65" xmlns="http://www.w3.org/2000/svg"><g stroke="#141515"><path d="m25.4615 14.1881v-2.7137c0-3.02345-2.4509-5.4744-5.4743-5.4744h-12.51284c-3.02341 0-5.47436 2.45095-5.47436 5.4744v23.4615c0 3.0234 2.45095 5.4744 5.47436 5.4744h9.22034" stroke-width="3"/><path clip-rule="evenodd" d="m57.5256 13.8208h-35.9743c-3.0234 0-5.4744 2.4509-5.4744 5.4743v23.4616c0 3.0234 2.451 5.4743 5.4744 5.4743h35.9743c3.0234 0 5.4744-2.4509 5.4744-5.4743v-23.4616c0-3.0234-2.451-5.4743-5.4744-5.4743z" fill-rule="evenodd" stroke-width="3"/><path d="m25.4617 24.7695c.8639 0 1.5641-.7003 1.5641-1.5641s-.7002-1.5641-1.5641-1.5641c-.8638 0-1.5641.7003-1.5641 1.5641s.7003 1.5641 1.5641 1.5641z" fill="#141515"/><path d="m25.4617 32.5903c.8639 0 1.5641-.7003 1.5641-1.5641 0-.8639-.7002-1.5641-1.5641-1.5641-.8638 0-1.5641.7002-1.5641 1.5641 0 .8638.7003 1.5641 1.5641 1.5641z" fill="#141515"/></g><path d="m23.8976 38.846c0-.8639.7003-1.5641 1.5641-1.5641.8639 0 1.5641.7002 1.5641 1.5641 0 .8638-.7002 1.5641-1.5641 1.5641-.8638 0-1.5641-.7003-1.5641-1.5641z" fill="#141515"/><path d="m23.8976 38.846c0-.8639.7003-1.5641 1.5641-1.5641.8639 0 1.5641.7002 1.5641 1.5641 0 .8638-.7002 1.5641-1.5641 1.5641-.8638 0-1.5641-.7003-1.5641-1.5641" stroke="#141515"/></svg>