<svg fill="none" height="62" viewBox="0 0 61 62" width="61" xmlns="http://www.w3.org/2000/svg"><g fill="#141515"><path d="m9 45c-4.41828 0-8-3.5817-8-8v-26c0-4.41827 3.58172-8 8-8h26c4.4183 0 8 3.58172 8 8v10h-2v-10c0-3.31371-2.6863-6-6-6h-26c-3.31371 0-6 2.68629-6 6v26c0 3.3137 2.68629 6 6 6h10v2z" stroke="#141515"/><path d="m26 53c-3.866 0-7-3.134-7-7v-18c0-3.866 3.134-7 7-7h18c3.866 0 7 3.134 7 7v11h-2v-11c0-2.7614-2.2386-5-5-5h-18c-2.7614 0-5 2.2386-5 5v18c0 2.7614 2.2386 5 5 5h11v2z" stroke="#141515"/><path clip-rule="evenodd" d="m43 61c-3.3137 0-6-2.6863-6-6v-10c0-3.3137 2.6863-6 6-6h10c3.3137 0 6 2.6863 6 6v10c0 3.3137-2.6863 6-6 6zm-4-6c0 2.2091 1.7909 4 4 4h10c2.2091 0 4-1.7909 4-4v-10c0-2.2091-1.7909-4-4-4h-10c-2.2091 0-4 1.7909-4 4z" fill-rule="evenodd"/><path d="m43 60.5c-3.0376 0-5.5-2.4624-5.5-5.5h-1c0 3.5898 2.9102 6.5 6.5 6.5zm-5.5-5.5v-10h-1v10zm0-10c0-3.0376 2.4624-5.5 5.5-5.5v-1c-3.5898 0-6.5 2.9102-6.5 6.5zm5.5-5.5h10v-1h-10zm10 0c3.0376 0 5.5 2.4624 5.5 5.5h1c0-3.5898-2.9102-6.5-6.5-6.5zm5.5 5.5v10h1v-10zm0 10c0 3.0376-2.4624 5.5-5.5 5.5v1c3.5898 0 6.5-2.9102 6.5-6.5zm-5.5 5.5h-10v1h10zm-14.5-5.5c0 2.4852 2.0148 4.5 4.5 4.5v-1c-1.933 0-3.5-1.567-3.5-3.5zm4.5 4.5h10v-1h-10zm10 0c2.4852 0 4.5-2.0148 4.5-4.5h-1c0 1.933-1.567 3.5-3.5 3.5zm4.5-4.5v-10h-1v10zm0-10c0-2.4852-2.0148-4.5-4.5-4.5v1c1.933 0 3.5 1.567 3.5 3.5zm-4.5-4.5h-10v1h10zm-10 0c-2.4852 0-4.5 2.0148-4.5 4.5h1c0-1.933 1.567-3.5 3.5-3.5zm-4.5 4.5v10h1v-10z"/><path d="m48 52c1.1046 0 2-.8954 2-2s-.8954-2-2-2-2 .8954-2 2 .8954 2 2 2z" stroke="#141515"/></g></svg>